<svg height="512" viewBox="0 0 58 58" width="512" xmlns="http://www.w3.org/2000/svg"><g id="Page-1" fill="none" fill-rule="evenodd"><g id="004---Brain-Analysis" fill-rule="nonzero"><path id="Shape" d="m22.03 13.03-.01 4v.04c-.01.31-.02.62-.02.93s.01.62.02.93l-.02 11.69v20.88c-.002145.4397778-.0456702.878378-.13 1.31-.0990893.4872722-.2569081.9607287-.47 1.41-.0632489.1514958-.1367527.2985034-.22.44-.0978811.1892782-.2116211.3699241-.34.54-.237318.3521362-.5122715.6773861-.82.97v.01c-1.5478076 1.4899857-3.7311589 2.1202225-5.8348976 1.6842767-2.1037388-.4359459-3.85685-1.8819136-4.6851024-3.8642767-3.03756612 0-5.5-2.4624339-5.5-5.5-.00369571-.8782027.20925932-1.7437618.62-2.52-2.60434181-.1985025-4.61710637-2.3681058-4.62-4.98-.00029627-.8440863.21666307-1.6740419.63-2.41.31208436-.5815273.74106929-1.0922236 1.26-1.5-.05-.05-.09-.1-.14-.15-1.20214704-1.28665-1.83084616-3.0059751-1.74225497-4.7646045s.88689154-3.4060692 2.21225497-4.5653955c-.14508914-.5243956-.21908404-1.0659037-.22-1.61.00278824-3.2183277 2.54424671-5.8612681 5.76-5.99-.34728898-.5190161-.58231001-1.1048657-.69-1.72-.04897066-.2604301-.07241506-.5250168-.07-.79-.00090625-1.8928442 1.18791442-3.5820103 2.97-4.22l.01-.01c.989508-.7345028 2.0176474-1.4154782 3.08-2.04 3.51-2.06 5.64-2.23 6.94-1.67 1.1734188.611044 1.9346912 1.7986291 2 3.12.02.22.03.35.03.35z" fill="#fb7b76"/><path id="Shape" d="m39.38 45.98c.4107407.7762382.6236957 1.6417973.62 2.52 0 3.0375661-2.4624339 5.5-5.5 5.5-1.1917026 2.8600861-4.2364976 4.4814258-7.2747549 3.8737744-3.0382573-.6076515-5.2252451-3.2753478-5.2252451-6.3737744v-20.88l.02-11.69c.1239868 2.5574817.7994148 5.0579296 1.98 7.33 3.0921091 5.9834197 9.2648349 9.7410665 16 9.74.22 0 .43 0 .65-.01 2.1246977.7156323 3.5004319 2.7730735 3.35 5.01-.0028936 2.6118942-2.0156582 4.7814975-4.62 4.98z" fill="#ff5364"/><g fill="#df4d60"><path id="Shape" d="m24 19v37c-.0017076.0604477-.008397.1206517-.02.18-1.2652985-1.2283452-1.9795323-2.9165341-1.98-4.68v-32.5c0-.5522847.4477153-1 1-1s1 .4477153 1 1z"/><path id="Shape" d="m17 16.5c0 .5522847-.4477153 1-1 1s-1-.4477153-1-1c0-1.9329966-1.5670034-3.5-3.5-3.5-.395416-.0020275-.788093.0656754-1.16.2-.1141018.0472048-.2365233.071009-.36.07.989508-.7345028 2.0176474-1.4154782 3.08-2.04 2.3336021.6929917 3.9355356 2.8356795 3.94 5.27z"/><path id="Shape" d="m15 25c0 .5522847-.4477153 1-1 1s-1-.4477153-1-1c0-1.3260824-.5267842-2.597852-1.4644661-3.5355339s-2.20945145-1.4644661-3.5355339-1.4644661h-.12c-.04 0-.08.01-.12.01-.34728898-.5190161-.58231001-1.1048657-.69-1.72.1539401-.1519546.35490568-.2471488.57-.27.11923921-.0166233.23965322-.0233129.36-.02 3.8641657.0044086 6.9955914 3.1358343 7 7z"/><path id="Shape" d="m6 39c0 .5522847-.44771525 1-1 1-1.56956402.0067968-3.10039613-.487133-4.37-1.41.31208436-.5815273.74106929-1.0922236 1.26-1.5-.05-.05-.09-.1-.14-.15.94155071.6928683 2.08099876 1.0645036 3.25 1.06.55228475 0 1 .4477153 1 1z"/><path id="Shape" d="m13.7 32.985c1.8857785-.0666647 3.6756862-.8477609 5.007-2.185.3789722-.3923789.3735524-1.0160848-.0121814-1.4018186s-1.0094397-.3911536-1.4018186-.0121814c-1.5722233 1.5753916-3.9389406 2.0479259-5.9955845 1.197067-2.0566438-.8508589-3.39775114-2.8573661-3.3974155-5.083067 0-.5522847-.44771525-1-1-1s-1 .4477153-1 1c.00589259 3.4632753 2.38024465 6.4730464 5.747 7.285-.4763452 1.2019535-1.5747288 2.0448544-2.859 2.194-.52833467.0581209-.91888597.5193982-.88907816 1.0500836.02980781.5306855.46955809.9453259 1.00107816.9439164.03708092-.0000044.07413466-.0020073.111-.006 2.2249486-.2558015 4.076146-1.8278782 4.689-3.982z"/><path id="Shape" d="m17.9 38c-3.8641657.0044086-6.9955914 3.1358343-7 7 0 .027 0 .054.005.081-.332593-.0513313-.6684792-.0784027-1.005-.081-.55228475 0-1 .4477153-1 1s.44771525 1 1 1c2.7600532.0033061 4.9966939 2.2399468 5 5 0 .5522847.4477153 1 1 1s1-.4477153 1-1c-.0037171-2.6770361-1.5339198-5.1175191-3.942-6.287-.0367719-.2359251-.0561574-.4742335-.058-.713.0033061-2.7600532 2.2399468-4.9966939 5-5 .5522847 0 1-.4477153 1-1s-.4477153-1-1-1z"/><path id="Shape" d="m32.831 48.41c-.0801558.0000138-.160036-.0093839-.238-.028-.257858-.0627426-.4802015-.2254093-.6180608-.4521739-.1378594-.2267646-.1799275-.499028-.1169392-.7568261.0945714-.3838232.1422527-.7776977.142-1.173-.0033061-2.7600532-2.2399468-4.9966939-5-5-.5522847 0-1-.4477153-1-1s.4477153-1 1-1c2.1464605-.000882 4.1744943.9837679 5.5013391 2.6710071 1.3268448 1.6872393 1.8055879 3.8902512 1.2986609 5.9759929-.1090325.4469521-.5089424.7618451-.969.763z"/><path id="Shape" d="m29 54c-.5522847 0-1-.4477153-1-1 .0044086-3.8641657 3.1358343-6.9955914 7-7 .5522847 0 1 .4477153 1 1s-.4477153 1-1 1c-2.7600532.0033061-4.9966939 2.2399468-5 5 0 .2652165-.1053568.5195704-.2928932.7071068s-.4418903.2928932-.7071068.2928932z"/><path id="Shape" d="m28.5 45c0 .5522847-.4477153 1-1 1-3.0352835.0055037-5.4944963 2.4647165-5.5 5.5v-5.08c1.4100752-1.5461231 3.4074456-2.4249661 5.5-2.42.2652165 0 .5195704.1053568.7071068.2928932s.2928932.4418903.2928932.7071068z"/></g><path id="Shape" d="m40 0c-9.1628017-.00498197-16.8660909 6.87617822-17.8908871 15.9814927-1.0247962 9.1053145 4.9562107 17.5266319 13.8908871 19.5585073 1.310566.3103193 2.6532042.4647226 4 .46 1.0056271.0000185 2.0093702-.0869726 3-.26 9.2041536-1.5813923 15.6701146-9.9393917 14.8889487-19.2456812-.7811659-9.30628952-8.5499645-16.4694294-17.8889487-16.4943188zm0 32c-7.7319865 0-14-6.2680135-14-14s6.2680135-14 14-14 14 6.2680135 14 14c-.0082673 7.7285595-6.2714405 13.9917327-14 14z" fill="#3b97d3"/><circle id="Oval" cx="40" cy="18" fill="#84b5cb" r="14"/><path id="Shape" d="m43 35.74v5.26h-7v-5.46c1.310566.3103193 2.6532042.4647226 4 .46 1.0056271.0000185 2.0093702-.0869726 3-.26z" fill="#285680"/><path id="Rectangle-path" d="m36 41h7v11h-7z" fill="#84b5cb"/><path id="Rectangle-path" d="m36 41h7v11h-7z" fill="#f0c419"/><path id="Shape" d="m43 52v2.5c0 1.9329966-1.5670034 3.5-3.5 3.5s-3.5-1.5670034-3.5-3.5v-2.5z" fill="#285680"/><circle id="Oval" cx="37" cy="12" fill="#fff" r="3"/><circle id="Oval" cx="32" cy="17" fill="#fff" r="1"/><path id="Shape" d="m40 33c-8.2842712 0-15-6.7157288-15-15 0-8.28427125 6.7157288-15 15-15s15 6.71572875 15 15c-.0093685 8.2803876-6.7196124 14.9906315-15 15zm0-28c-7.1797017 0-13 5.8202983-13 13s5.8202983 13 13 13 13-5.8202983 13-13c-.008266-7.1762751-5.8237249-12.99173398-13-13z" fill="#285680"/></g></g></svg>